#!OML:ASF I:\Actors\actors\Patient Classification 1\Patient 1\Session 1\Subject1.ASF
:FULLY-SPECIFIED
:DEGREES
431
root -0.195286 17.6114 7.20429 3.47388 17.0381 -12.0009
lowerback 9.21496 7.86099 0.134731
upperback -8.5683 10.5113 -2.1016
thorax -14.1658 4.80997 -4.60233
lowerneck -10.1942 -14.4432 -9.44343
upperneck 9.7769 -21.0447 19.1454
head 7.82937 -9.27481 5.18807
rclavicle 1.31248e-013 4.6118e-014
rhumerus 27.6615 -10.2802 -84.5054
rradius 26.2923
rwrist 84.0037
rhand -35.4361 -66.7481
rfingers 7.12502
rthumb -8.5656 -263.446
lclavicle 1.31248e-013 4.6118e-014
lhumerus -41.2262 5.63681 53.6625
lradius 104.08
lwrist 17.6013
lhand -36.3418 -34.6927
lfingers 7.12502
lthumb -9.43962 -4.92415
rfemur 3.9096 20.1972 31.8735
rtibia -1.09462
rfoot -19.9151 -33.8526
rtoes 15.7032
lfemur -4.8547 -32.8406 -4.7808
ltibia 2.5503
lfoot -5.10607 22.8205
ltoes -15.8534
432
root -0.190493 17.6117 7.18762 3.71117 16.959 -11.9235
lowerback 9.24751 7.79216 0.386614
upperback -8.69693 10.4539 -2.17566
thorax -14.2796 4.74774 -4.82343
lowerneck -10.1925 -14.3506 -9.17457
upperneck 10.162 -20.9526 18.7553
head 7.85979 -9.22862 5.0415
rclavicle -7.69297e-014 -1.11319e-014
rhumerus 30.0982 -8.75711 -83.762
rradius 28.0516
rwrist 80.6848
rhand -34.8167 -66.848
rfingers 7.12502
rthumb -7.96786 -263.322
lclavicle -7.69297e-014 -1.11319e-014
lhumerus -40.5724 5.65351 53.8343
lradius 104.239
lwrist 17.1913
lhand -36.3253 -34.7682
lfingers 7.12502
lthumb -9.42366 -4.99883
rfemur 3.71022 20.5133 31.701
rtibia -1.20736
rfoot -20.0241 -33.9861
rtoes 16.0421
lfemur -5.25095 -32.7548 -4.71697
ltibia 2.71067
lfoot -5.04544 22.8131
ltoes -16.1531
433
root -0.185348 17.6133 7.17328 3.89256 16.7601 -11.8399
lowerback 9.30043 7.77147 0.629971
upperback -8.81323 10.4629 -2.23202
thorax -14.3937 4.71768 -5.03644
lowerneck -10.2014 -14.2432 -9.01187
upperneck 10.6478 -20.8548 18.4362
head 7.94602 -9.17225 4.93153
rclavicle -6.89286e-014 1.27222e-014
rhumerus 32.666 -7.20646 -83.1769
rradius 29.7782
rwrist 78.1843
rhand -34.5445 -67.2457
rfingers 7.12502
rthumb -7.70515 -262.915
lclavicle -6.89286e-014 1.27222e-014
lhumerus -39.7059 5.62753 54.3075
lradius 104.398
lwrist 16.8343
lhand -36.4166 -35.0689
lfingers 7.12502
lthumb -9.51176 -5.30359
rfemur 3.6443 20.993 31.5776
rtibia -1.39214
rfoot -20.0571 -34.1951
rtoes 16.3402
lfemur -5.47241 -32.6604 -4.74526
ltibia 2.82758
lfoot -4.98876 22.9113
ltoes -16.4109
434
root -0.180173 17.6141 7.16243 4.00839 16.4809 -11.8353
lowerback 9.29495 7.78799 0.882825
upperback -8.90933 10.5319 -2.22219
thorax -14.4549 4.7223 -5.18171
lowerneck -10.0773 -14.1325 -9.02078
upperneck 10.9632 -20.7336 18.2921
head 7.99166 -9.11684 4.91472
rclavicle -2.72335e-014 -1.43125e-014
rhumerus 35.2367 -5.51021 -82.6954
rradius 31.2522
rwrist 75.8534
rhand -34.7191 -67.3745
rfingers 7.12502
rthumb -7.87369 -262.792
lclavicle -2.72335e-014 -1.43125e-014
lhumerus -38.7431 5.49104 55.1115
lradius 104.552
lwrist 16.6655
lhand -36.5038 -35.3903
lfingers 7.12502
lthumb -9.59595 -5.62884
rfemur 3.62969 21.4248 31.5521
rtibia -1.58412
rfoot -19.9641 -34.3527
rtoes 16.3705
lfemur -5.58011 -32.5689 -4.71804
ltibia 2.88472
lfoot -5.00228 23.1072
ltoes -16.1589
435
root -0.177767 17.6139 7.15114 4.1031 16.2008 -11.81
lowerback 9.28923 7.79074 1.07615
upperback -8.98611 10.5761 -2.17979
thorax -14.5125 4.72326 -5.2535
lowerneck -10.1419 -14.0473 -8.81638
upperneck 11.4131 -20.6628 17.9831
head 8.07863 -9.06907 4.79355
rclavicle -8.09054e-014 -7.63333e-014
rhumerus 37.8473 -4.04702 -82.9446
rradius 32.3052
rwrist 74.2055
rhand -35.0714 -67.2382
rfingers 7.12502
rthumb -8.21369 -262.941
lclavicle -8.09054e-014 -7.63333e-014
lhumerus -37.7869 5.26338 56.1381
lradius 104.712
lwrist 16.6226
lhand -36.4528 -35.4724
lfingers 7.12502
lthumb -9.5467 -5.70864
rfemur 3.60123 21.7939 31.5132
rtibia -1.71088
rfoot -19.8841 -34.4706
rtoes 16.4407
lfemur -5.67832 -32.4572 -4.71293
ltibia 2.96361
lfoot -5.0629 23.2653
ltoes -15.6818
436
root -0.17897 17.6144 7.13677 4.14588 15.9187 -11.8118
lowerback 9.41121 7.75097 1.30733
upperback -9.05873 10.5721 -2.12236
thorax -14.6452 4.69238 -5.34133
lowerneck -10.3592 -13.9358 -8.58606
upperneck 12.0369 -20.554 17.5253
head 8.224 -8.99538 4.61643
rclavicle 1.85864e-014 4.92986e-014
rhumerus 40.2931 -2.55715 -83.9246
rradius 32.7343
rwrist 73.9305
rhand -34.9517 -67.0086
rfingers 7.12502
rthumb -8.09818 -263.167
lclavicle 1.85864e-014 4.92986e-014
lhumerus -36.7883 4.92112 57.1625
lradius 104.737
lwrist 16.4972
lhand -36.3356 -35.3925
lfingers 7.12502
lthumb -9.43361 -5.62367
rfemur 3.55198 22.0883 31.5218
rtibia -1.72902
rfoot -19.7425 -34.5368
rtoes 16.4113
lfemur -5.72645 -32.2644 -4.69173
ltibia 3.03842
lfoot -5.06223 23.3058
ltoes -15.4746
